<?xml version="1.0" encoding="UTF-8"?>
<svg id="Lag_1" xmlns="http://www.w3.org/2000/svg" viewBox="0 0 185.51 148.9">
  <defs>
    <style>
      .cls-1, .cls-2 {
        fill: #073b5b;
      }

      .cls-1, .cls-3 {
        font-family: HelveticaNeue-CondensedBlack, 'Helvetica Neue';
        font-size: 64.2px;
        font-weight: 800;
      }

      .cls-4 {
        letter-spacing: 0em;
      }

      .cls-5 {
        font-family: HelveticaNeue-MediumItalic, 'Helvetica Neue';
        font-size: 70.84px;
        font-style: italic;
        font-weight: 500;
      }

      .cls-5, .cls-3, .cls-6 {
        fill: #e682a9;
      }

      .cls-7 {
        letter-spacing: .02em;
      }

      .cls-8 {
        letter-spacing: .02em;
      }
    </style>
  </defs>
  <text class="cls-1" transform="translate(24.01 49.38)"><tspan x="0" y="0">tech</tspan></text>
  <text class="cls-1" transform="translate(36.1 94.32)"><tspan x="0" y="0">sto</tspan><tspan class="cls-8" x="82.05" y="0">r</tspan><tspan x="105.81" y="0">y</tspan></text>
  <text class="cls-3" transform="translate(56.72 140.41)"><tspan x="0" y="0">lab</tspan></text>
  <text class="cls-5" transform="translate(2.47 99.34) scale(.82 1)"><tspan x="0" y="0">&amp;</tspan></text>
  <path class="cls-6" d="M29.26,99.66c2.94,4.41,8.17,7.02,13.48,6.23,5.7-.85,9.06-5.62,12.43-9.76,6.47-7.93,15.83-12.61,25.58-15.15,5.1-1.33,10.33-2.13,15.58-2.47,6-.39,12.09-.14,17.91,1.46,2.73.75,5.38,1.76,7.85,3.16s4.92,3.25,7.27,5.02c4.07,3.07,8.08,5.87,13.03,7.3,5.27,1.52,10.95,1.91,16.39,1.35s10.49-1.8,14.94-4.63c2.71-1.72.2-6.05-2.52-4.32-7.2,4.58-17.32,5.14-25.51,3.28-4.56-1.03-8.19-3.13-11.94-5.91-4.6-3.4-8.98-6.76-14.37-8.83-10.83-4.17-23.15-3.55-34.37-1.47-9.98,1.85-19.76,5.54-27.68,12.01-2.18,1.78-4.17,3.77-5.93,5.97s-3.37,4.55-5.58,6.29c-3.89,3.06-9.48,2.1-12.23-2.04-1.77-2.67-6.11-.17-4.32,2.52h0Z"/>
  <path class="cls-6" d="M30.89,99.55c.05.23.11.45.19.67.15.42.32.83.52,1.22.11.21.23.41.37.59.18.25.37.51.57.74.08.08.18.16.28.22.09.07.18.14.27.21.09.07.2.11.31.14.11.05.22.1.33.14l.66.09h.03c.12,0,.24-.02.36-.04.12-.01.24-.03.36-.05l-.66.09s.04,0,.06,0l-.66-.09h.03c-.2-.07-.4-.16-.6-.24.23.11.45.23.69.3.45.12.93.12,1.38,0,.88-.24,1.56-.93,1.81-1.8.1-.33.12-.66.04-1-.02-.33-.11-.64-.3-.93-.16-.29-.37-.53-.64-.7-.24-.22-.52-.37-.85-.45l-.66-.09c-.45,0-.87.12-1.26.34l-.51.39c-.31.31-.52.68-.64,1.1v.02c.21-.37.42-.74.64-1.1v.02c.15-.13.32-.26.49-.39h-.02c.2-.07.4-.16.6-.24h-.02c.22-.02.44-.05.66-.08h-.03c.22.03.44.06.66.09h-.02c.2.08.4.16.6.25-.03-.01-.05-.03-.08-.04-.1-.05-.21-.09-.31-.13-.11-.06-.22-.1-.33-.14l-.66-.09h-.03c-.12.01-.24.03-.36.05-.12.01-.24.03-.36.05l.66-.09s-.04,0-.06,0l.66.09h-.03c.2.07.4.16.6.24l-.03-.02.51.39s-.08-.09-.12-.14l.39.51c-.25-.33-.46-.69-.63-1.07l.25.6c-.13-.3-.22-.62-.29-.94-.08-.33-.23-.61-.45-.85-.18-.27-.41-.49-.7-.64-.29-.18-.6-.28-.93-.3-.33-.07-.66-.06-1,.04l-.6.25c-.38.22-.67.52-.9.9l-.25.6c-.12.44-.12.89,0,1.33h0Z"/>
  <rect class="cls-6" x="169" y="86.21" width="9.95" height="5.66" rx="2.83" ry="2.83" transform="translate(154.43 -105.42) rotate(57.16)"/>
  <rect class="cls-2" x="175.14" y="85.51" width="2.73" height="1.52" rx=".31" ry=".31" transform="translate(-18.57 109.52) rotate(-32.84)"/>
  <rect class="cls-2" x="176.49" y="87.61" width="2.73" height="1.52" rx=".31" ry=".31" transform="translate(-19.49 110.59) rotate(-32.84)"/>
  <rect class="cls-2" x="176.49" y="87.9" width="2.73" height=".92" rx=".31" ry=".31" transform="translate(-19.49 110.59) rotate(-32.84)"/>
  <text class="cls-1" transform="translate(117.96 94.56)"><tspan class="cls-7" x="0" y="0">r</tspan><tspan class="cls-4" x="23.75" y="0">y</tspan></text>
  <text class="cls-1" transform="translate(36.13 94.32)"><tspan x="0" y="0">st</tspan></text>
  <rect class="cls-6" x="169" y="86.21" width="9.95" height="5.66" rx="2.83" ry="2.83" transform="translate(154.43 -105.42) rotate(57.16)"/>
  <path class="cls-6" d="M31.34,89.64c.67,1.16,1.17,2.1,1.5,2.74.6,1.15.77,1.55,1.52,2.97.64,1.23.97,1.85,1.36,2.46.86,1.34,1.28,2.01,1.85,2.41,1.59,1.1,3.67.67,4.84.42,1.66-.35,2.77-1.1,2.98-1.24.52-.35.93-.74,1.52-1.28.74-.69,1.12-1.03,1.48-1.52.26-.35.56-.68.82-1.04.31-.41.39-.53.53-.55.4-.04.95.81,1,1.56.04.76-.43,1.47-1.79,2.63-2.22,1.89-3.63,3.09-6.08,3.47-2.34.37-4.21-.23-5.03-.56-.85-.33-2.41-.94-3.56-2.44-.22-.29-.71-1.23-1.69-3.12-.64-1.24-.85-1.7-.96-1.96-.5-1.14-.42-1.2-.87-2.13-.23-.47-.46-.89-.69-1.57-.1-.29-.04-.16-.26-.87-.18-.58-.24-.72-.19-.95.01-.06.09-.41.4-.62.26-.17.67-.25.86-.06.13.12.08.27.18.63.08.27.19.49.27.63Z"/>
  <path class="cls-6" d="M26.76,94.67c.16.27.39.68.66,1.2.58,1.1.71,1.52,1.22,2.54.47.94.71,1.41,1.12,1.99.6.84,1.17,1.37,1.8,1.95,1.14,1.05,2.11,1.67,2.33,1.8.37.23,1.06.66,2.02,1.06,1.97.82,3.74.93,4.64.93.42,0,2,0,3.94-.61,1.64-.51,2.81-1.22,3.36-1.58,1.25-.82,2.07-1.67,2.25-1.85.26-.27.2-.23,1.32-1.47.51-.57.72-.79,1.06-1.2.36-.43.47-.6.87-1.1.43-.54.74-.91,1.26-1.52,1.47-1.73,2.28-2.56,2.25-2.6-.04-.04-1.53,1.44-2.86,2.71-3.79,3.61-5.69,5.42-7.27,6.14-4.15,1.91-8.21.97-8.98.8-1.82-.42-2.99-1.11-3.24-1.26-.54-.32-2.16-1.33-3.38-3.23-.54-.85-1.57-2.47-2.04-3.59,0,0-.25-.61-.91-1.18-.06-.05-.23-.19-.48-.23-.11-.02-.38-.06-.51.1-.09.11-.08.26-.07.32"/>
</svg>